# xmcd
#
# Track frame offsets: 
#        150
#        22870
#        46537
#        65488
#        88207
#        127324
#        145195
#
# Disc length: 2355 seconds
#
# Revision: 0
# Processed by: cddbd v1.5.2PL0 Copyright (c) Steve Scherf et al.
# Submitted via: ExactAudioCopyFreeDBPlugin 1.0
#
DISCID=5b093107
DTITLE=Underground Ballroom - Contradictions
DYEAR=2006
DGENRE=Blues
TTITLE0=Drawing the Line
TTITLE1=Big Road
TTITLE2=Devil My Deceiver
TTITLE3=I've Got to Use You
TTITLE4=Here, Looking In Your Eyes
TTITLE5=Contradictions
TTITLE6=Love Lies Bleeding
EXTD=
EXTT0=
EXTT1=
EXTT2=
EXTT3=
EXTT4=
EXTT5=
EXTT6=
PLAYORDER=
